<?xml version="1.0" standalone="no"?>
<svg viewBox="0 0 200 200" xmlns="http://www.w3.org/2000/svg">
  <path fill="#FCE046" d="M37.9,-65.1C49.2,-59.2,58.4,-49.1,59,-37.6C59.6,-26,51.6,-13,50.9,-0.4C50.2,12.2,56.7,24.3,55.7,35.3C54.8,46.3,46.4,56.1,35.9,58.5C25.4,61,12.7,56.1,-1.6,58.8C-15.9,61.6,-31.7,72,-43.8,70.4C-55.9,68.9,-64.3,55.4,-70.2,41.7C-76.2,28,-79.6,14,-74.6,2.9C-69.5,-8.2,-55.9,-16.3,-48,-26.6C-40.1,-36.8,-37.8,-49.2,-30.7,-57.5C-23.7,-65.8,-11.8,-70.1,0.8,-71.4C13.3,-72.7,26.7,-71,37.9,-65.1Z" transform="translate(100 100)" />
</svg>
